<?xml version="1.0" encoding="iso-8859-1"?>
<!-- Generator: Adobe Illustrator 19.0.0, SVG Export Plug-In . SVG Version: 6.00 Build 0)  -->
<svg version="1.1" id="Capa_1" xmlns="http://www.w3.org/2000/svg" xmlns:xlink="http://www.w3.org/1999/xlink" x="0px" y="0px"
	 viewBox="0 0 514.56 514.56" style="enable-background:new 0 0 514.56 514.56;" xml:space="preserve">
<g>
	<g>
		<path d="M499.2,336.057h-12.8V51.897c0-12.8-12.8-23.04-25.6-23.04H284.16l-2.56-10.24c-2.56-10.24-12.8-17.92-25.6-17.92
			s-20.48,5.12-25.6,17.92l-2.56,10.24H51.2c-12.8,0-25.6,10.24-25.6,23.04v284.16H12.8c-7.68,0-12.8,5.12-12.8,12.8v25.6
			c0,7.68,5.12,12.8,12.8,12.8h97.28l-30.72,94.72c-5.12,12.8,5.12,28.16,17.92,30.72c12.8,2.56,28.16-5.12,30.72-17.92
			l35.84-110.08h186.88l35.84,110.08c2.56,10.24,15.36,23.04,30.72,17.92c12.8-5.12,20.48-17.92,17.92-30.72l-30.72-94.72h97.28
			c7.68,0,12.8-5.12,12.8-12.8v-25.6C512,341.177,506.88,336.057,499.2,336.057z M435.2,336.057H332.8v-51.2h102.4V336.057z"/>
	</g>
</g>
<g>
</g>
<g>
</g>
<g>
</g>
<g>
</g>
<g>
</g>
<g>
</g>
<g>
</g>
<g>
</g>
<g>
</g>
<g>
</g>
<g>
</g>
<g>
</g>
<g>
</g>
<g>
</g>
<g>
</g>
</svg>
