<svg height="512" viewBox="0 0 58 58" width="512" xmlns="http://www.w3.org/2000/svg"><g id="Page-1" fill="none" fill-rule="evenodd"><g id="017---Online-Course" fill="rgb(0,0,0)" fill-rule="nonzero"><path id="Shape" d="m24 37v8h-4c-.3411432.0027046-.679326.0635775-1 .18v-7.18c0-.5522847.4477153-1 1-1z"/><path id="Shape" d="m17 38v7.18c-.320674-.1164225-.6588568-.1772954-1-.18h-4v-8h4c.5522847 0 1 .4477153 1 1z"/><path id="Shape" d="m17 48v1h-5v-2h4c.5522847 0 1 .4477153 1 1z"/><path id="Shape" d="m24 47v2h-5v-1c0-.5522847.4477153-1 1-1z"/><path id="Shape" d="m29 17c-2.7614237 0-5 2.2385763-5 5s2.2385763 5 5 5 5-2.2385763 5-5-2.2385763-5-5-5zm2.55 5.83-3 2c-.1610128.1128533-.3533896.1723152-.55.17-.4385565-.0033853-.8237305-.292132-.9499631-.7121422-.1262326-.4200103.0359373-.8732592.3999631-1.1178578l1.75-1.17-1.75-1.17c-.3344065-.1793781-.5384678-.5325821-.5268341-.9118826.0116337-.3793006.2369575-.7193347.5817287-.8778815.3447711-.1585468.749577-.1082846 1.0451054.1297641l3 2c.2809025.1826305.4503705.4949476.4503705.83s-.169468.6473695-.4503705.83z"/><path id="Shape" d="m49 13h-40c-.55228475 0-1 .4477153-1 1v16c0 .5522847.44771525 1 1 1h40c.5522847 0 1-.4477153 1-1v-16c0-.5522847-.4477153-1-1-1zm-20 16c-3.8659932 0-7-3.1340068-7-7s3.1340068-7 7-7 7 3.1340068 7 7c-.0044086 3.8641657-3.1358343 6.9955914-7 7z"/><path id="Shape" d="m0 9v45c0 2.209139 1.790861 4 4 4h50c2.209139 0 4-1.790861 4-4v-45zm30 43c-.0049422 1.6548028-1.3451972 2.9950578-3 3h-18c-1.6548028-.0049422-2.9950578-1.3451972-3-3v-12c.0049422-1.6548028 1.3451972-2.9950578 3-3h1c.0032948-1.1032019.8967981-1.9967052 2-2h4c.7393528-.0016714 1.452655.2729499 2 .77.547345-.4970501 1.2606472-.7716714 2-.77h4c1.1032019.0032948 1.9967052.8967981 2 2h1c1.6548028.0049422 2.9950578 1.3451972 3 3zm14 1h-9c-.5522847 0-1-.4477153-1-1s.4477153-1 1-1h9c.5522847 0 1 .4477153 1 1s-.4477153 1-1 1zm-9-6h2c.5522847 0 1 .4477153 1 1s-.4477153 1-1 1h-2c-.5522847 0-1-.4477153-1-1s.4477153-1 1-1zm-1-3c0-.5522847.4477153-1 1-1h9c.5522847 0 1 .4477153 1 1s-.4477153 1-1 1h-9c-.5522847 0-1-.4477153-1-1zm17 5h-10c-.5522847 0-1-.4477153-1-1s.4477153-1 1-1h10c.5522847 0 1 .4477153 1 1s-.4477153 1-1 1zm0-4h-3c-.5522847 0-1-.4477153-1-1s.4477153-1 1-1h3c.5522847 0 1 .4477153 1 1s-.4477153 1-1 1zm0-4h-16c-.5522847 0-1-.4477153-1-1s.4477153-1 1-1h16c.5522847 0 1 .4477153 1 1s-.4477153 1-1 1zm1-11c-.0049422 1.6548028-1.3451972 2.9950578-3 3h-40c-1.6548028-.0049422-2.9950578-1.3451972-3-3v-16c.0049422-1.6548028 1.3451972-2.9950578 3-3h40c1.6548028.0049422 2.9950578 1.3451972 3 3z"/><path id="Shape" d="m28 40v12c0 .5522847-.4477153 1-1 1h-18c-.55228475 0-1-.4477153-1-1v-12c0-.5522847.44771525-1 1-1h1v10c.0032948 1.1032019.8967981 1.9967052 2 2h12c1.1032019-.0032948 1.9967052-.8967981 2-2v-10h1c.5522847 0 1 .4477153 1 1z"/><path id="Shape" d="m54 0h-50c-2.209139 0-4 1.790861-4 4v3h58v-3c0-2.209139-1.790861-4-4-4zm-49 5c-.55228475 0-1-.44771525-1-1s.44771525-1 1-1 1 .44771525 1 1-.44771525 1-1 1zm4 0c-.55228475 0-1-.44771525-1-1s.44771525-1 1-1 1 .44771525 1 1-.44771525 1-1 1zm4 0c-.5522847 0-1-.44771525-1-1s.4477153-1 1-1 1 .44771525 1 1-.4477153 1-1 1zm34 0h-6c-.5522847 0-1-.44771525-1-1s.4477153-1 1-1h6c.5522847 0 1 .44771525 1 1s-.4477153 1-1 1zm5 0h-1c-.5522847 0-1-.44771525-1-1s.4477153-1 1-1h1c.5522847 0 1 .44771525 1 1s-.4477153 1-1 1z"/></g></g></svg>